:FULLY-SPECIFIED
:FORCE-ALL-JOINTS-BE-3DOF
:DEGREES
679
root 5.37335 16.6046 1.04601 16.1208 -24.3798 0.927902
lfemur -32.7622 23.0356 -8.71725
ltibia 93.3402 -0 0
lfoot 5.00102 -3.75223 -0.000674814
ltoes 9.56144 -0 0
rfemur -34.8169 -13.8286 23.9195
rtibia 50.1222 -0 0
rfoot -14.3393 -4.67681 0.636255
rtoes 2.28523 -0 0
lowerback 0.17007 -5.90134 -1.1255
upperback -1.9528 -7.92138 0.0528911
thorax -1.93743 -3.93739 0.778375
lowerneck -9.11404 -4.4586 0.256002
upperneck 2.32644 -6.15659 3.3953
head 2.42342 -2.96931 0.741994
lclavicle -2.46493e-14 2.54444e-14 0
lhumerus 21.0592 -61.2609 49.3957
lradius 84.7657 -0 0
lwrist 28.4999 0 0
lhand -14.672 -1.90759 0.107566
lfingers 7.12502 -0 0
lthumb 11.4789 27.7116 0.0965172
rclavicle -2.46493e-14 2.54444e-14 0
rhumerus -47.2027 -10.808 -40.9137
rradius 76.1449 -0 0
rwrist -17.5238 0 0
rhand -29.3877 -46.3574 -0.0814604
rfingers 7.12502 -0 0
rthumb -2.72573 -76.3006 -0.0800293
680
root 5.3674 16.7227 1.19489 15.9559 -25.9653 0.984003
lfemur -33.6921 22.3138 -6.57804
ltibia 95.6411 -0 0
lfoot 5.29792 -3.75513 -0.00073481
ltoes 11.0186 -0 0
rfemur -32.8774 -13.1334 23.0133
rtibia 47.2711 -0 0
rfoot -12.7625 -4.16179 0.6932
rtoes 2.28523 -0 0
lowerback 0.35153 -5.80045 -1.21281
upperback -1.93912 -7.79584 -0.117407
thorax -2.03892 -3.87299 0.66868
lowerneck -8.92578 -4.47356 0.237248
upperneck 2.4506 -6.18342 3.52757
head 2.43724 -2.97949 0.789288
lclavicle -2.46493e-14 2.54444e-14 0
lhumerus 23.386 -59.2289 45.5497
lradius 84.5269 -0 0
lwrist 28.5978 0 0
lhand -15.1383 -2.20133 0.117135
lfingers 7.12502 -0 0
lthumb 11.029 27.4384 0.105102
rclavicle -2.46493e-14 2.54444e-14 0
rhumerus -46.5514 -10.5438 -39.2678
rradius 77.8081 -0 0
rwrist -17.0903 0 0
rhand -29.6995 -46.0248 -0.0887051
rfingers 7.12502 -0 0
rthumb -3.02686 -75.9622 -0.0871467
681
root 5.36145 16.8409 1.34376 15.787 -27.5507 1.04604
lfemur -34.6457 21.6245 -4.4371
ltibia 97.9421 -0 0
lfoot 5.59482 -3.75802 -0.000779809
ltoes 12.4758 -0 0
rfemur -30.9547 -12.409 22.1342
rtibia 44.42 -0 0
rfoot -11.1853 -3.6454 0.735951
rtoes 2.28523 -0 0
lowerback 0.532804 -5.69929 -1.29978
upperback -1.92582 -7.67026 -0.287623
thorax -2.14053 -3.80878 0.558879
lowerneck -8.73752 -4.48847 0.218444
upperneck 2.57469 -6.21053 3.65979
head 2.45105 -2.98968 0.83658
lclavicle -2.46493e-14 2.54444e-14 0
lhumerus 25.3257 -57.1274 42.0758
lradius 84.2881 -0 0
lwrist 28.6957 0 0
lhand -15.6047 -2.49514 0.124312
lfingers 7.12502 -0 0
lthumb 10.579 27.1652 0.111542
rclavicle -2.46493e-14 2.54444e-14 0
rhumerus -45.8932 -10.2981 -37.6203
rradius 79.4713 -0 0
rwrist -16.6568 0 0
rhand -30.0114 -45.6921 -0.094139
rfingers 7.12502 -0 0
rthumb -3.32804 -75.6237 -0.0924851
682
root 5.35549 16.9591 1.49264 15.6136 -29.1359 1.11436
lfemur -35.6219 20.9688 -2.29396
ltibia 100.243 -0 0
lfoot 5.89172 -3.76092 -0.000809809
ltoes 13.933 -0 0
rfemur -29.049 -11.6563 21.2829
rtibia 41.569 -0 0
rfoot -9.60766 -3.12802 0.764472
rtoes 2.28523 -0 0
lowerback 0.713891 -5.59785 -1.38642
upperback -1.9129 -7.54465 -0.457761
thorax -2.24226 -3.74477 0.448972
lowerneck -8.54924 -4.50331 0.199591
upperneck 2.69873 -6.23794 3.79195
head 2.46486 -2.99988 0.88387
lclavicle -2.46493e-14 2.54444e-14 0
lhumerus 26.9362 -54.9704 38.9142
lradius 84.0493 -0 0
lwrist 28.7937 0 0
lhand -16.0712 -2.789 0.129097
lfingers 7.12502 -0 0
lthumb 10.129 26.8919 0.115835
rclavicle -2.46493e-14 2.54444e-14 0
rhumerus -45.2286 -10.0711 -35.9713
rradius 81.1345 -0 0
rwrist -16.2233 0 0
rhand -30.3233 -45.3594 -0.0977618
rfingers 7.12502 -0 0
rthumb -3.62924 -75.2853 -0.0960442
683
root 5.34954 17.0772 1.64152 15.4351 -30.7209 1.18935
lfemur -36.6194 20.3475 -0.148197
ltibia 102.544 -0 0
lfoot 6.18862 -3.76381 -0.000824809
ltoes 15.3902 -0 0
rfemur -27.1599 -10.8765 20.4597
rtibia 38.7179 -0 0
rfoot -8.02987 -2.61004 0.778738
rtoes 2.28523 -0 0
lowerback 0.894793 -5.49614 -1.47272
upperback -1.90036 -7.41899 -0.62782
thorax -2.3441 -3.68095 0.338959
lowerneck -8.36096 -4.51809 0.180689
upperneck 2.82272 -6.26562 3.92407
head 2.47865 -3.01009 0.931158
lclavicle -2.46493e-14 2.54444e-14 0
lhumerus 28.2661 -52.7688 36.0144
lradius 83.8105 -0 0
lwrist 28.8916 0 0
lhand -16.5377 -3.08289 0.13149
lfingers 7.12502 -0 0
lthumb 9.679 26.6186 0.117982
rclavicle -2.46493e-14 2.54444e-14 0
rhumerus -44.5581 -9.863 -34.3208
rradius 82.7977 -0 0
rwrist -15.7898 0 0
rhand -30.6353 -45.0267 -0.0995733
rfingers 7.12502 -0 0
rthumb -3.93046 -74.9468 -0.0978238
684
root 5.34358 17.1954 1.79039 15.2512 -32.3057 1.27147
lfemur -37.6372 19.7617 2.00049
ltibia 104.845 -0 0
lfoot 6.48551 -3.76671 -0.000824809
ltoes 16.8474 -0 0
rfemur -25.2872 -10.0706 19.6652
rtibia 35.8668 -0 0
rfoot -6.45202 -2.09188 0.778738
rtoes 2.28523 -0 0
lowerback 1.07551 -5.39415 -1.55868
upperback -1.8882 -7.2933 -0.797804
thorax -2.44606 -3.61733 0.228841
lowerneck -8.17267 -4.5328 0.161738
upperneck 2.94664 -6.29359 4.05613
head 2.49244 -3.02031 0.978443
lclavicle -2.46493e-14 2.54444e-14 0
lhumerus 29.3557 -50.5318 33.3342
lradius 83.5716 -0 0
lwrist 28.9895 0 0
lhand -17.0041 -3.37679 0.13149
lfingers 7.12502 -0 0
lthumb 9.22899 26.3452 0.117982
rclavicle -2.46493e-14 2.54444e-14 0
rhumerus -43.8821 -9.67403 -32.669
rradius 84.461 -0 0
rwrist -15.3563 0 0
rhand -30.9472 -44.6939 -0.0995733
rfingers 7.12502 -0 0
rthumb -4.23169 -74.6082 -0.0978238
685
root 5.33763 17.3135 1.93927 15.0612 -33.8903 1.36121
lfemur -38.6739 19.2121 4.15234
ltibia 107.146 -0 0
lfoot 6.78241 -3.7696 -0.000809809
ltoes 18.3045 -0 0
rfemur -23.4305 -9.2397 18.8998
rtibia 33.0157 -0 0
rfoot -4.87423 -1.5739 0.764472
rtoes 2.28523 -0 0
lowerback 1.25604 -5.2919 -1.6443
upperback -1.87642 -7.16758 -0.967714
thorax -2.54813 -3.5539 0.118616
lowerneck -7.98437 -4.54746 0.142738
upperneck 3.07051 -6.32184 4.18813
head 2.50622 -3.03055 1.02573
lclavicle -2.46493e-14 2.54444e-14 0
lhumerus 30.2382 -48.2665 30.8385
lradius 83.3328 -0 0
lwrist 29.0874 0 0
lhand -17.4706 -3.67067 0.129097
lfingers 7.12502 -0 0
lthumb 8.77897 26.0719 0.115835
rclavicle -2.46493e-14 2.54444e-14 0
rhumerus -43.2013 -9.50436 -31.0159
rradius 86.1242 -0 0
rwrist -14.9228 0 0
rhand -31.2592 -44.3612 -0.0977618
rfingers 7.12502 -0 0
rthumb -4.53291 -74.2697 -0.0960442
686
root 5.33167 17.4317 2.08815 14.8644 -35.4746 1.45914
lfemur -39.7284 18.6997 6.30749
ltibia 109.447 -0 0
lfoot 7.07931 -3.7725 -0.000779809
ltoes 19.7617 -0 0
rfemur -21.5894 -8.38489 18.1637
rtibia 30.1647 -0 0
rfoot -3.29664 -1.05652 0.735951
rtoes 2.28523 -0 0
lowerback 1.43639 -5.18938 -1.72959
upperback -1.86502 -7.04182 -1.13755
thorax -2.65032 -3.49067 0.00828687
lowerneck -7.79606 -4.56205 0.12369
upperneck 3.19432 -6.35038 4.32008
head 2.51999 -3.04079 1.07301
lclavicle -2.46493e-14 2.54444e-14 0
lhumerus 30.9411 -45.979 28.4979
lradius 83.094 -0 0
lwrist 29.1854 0 0
lhand -17.9371 -3.96453 0.124312
lfingers 7.12502 -0 0
lthumb 8.32898 25.7986 0.111542
rclavicle -2.46493e-14 2.54444e-14 0
rhumerus -42.5161 -9.35413 -29.3616
rradius 87.7874 -0 0
rwrist -14.4893 0 0
rhand -31.5711 -44.0285 -0.094139
rfingers 7.12502 -0 0
rthumb -4.83411 -73.9313 -0.0924851
687
root 5.32572 17.5499 2.23702 14.6603 -37.0587 1.56588
lfemur -40.7994 18.2252 8.46601
ltibia 111.748 -0 0
lfoot 7.37621 -3.77539 -0.00073481
ltoes 21.2189 -0 0
rfemur -19.7635 -7.50724 17.4572
rtibia 27.3136 -0 0
rfoot -1.71939 -0.540129 0.6932
rtoes 2.28523 -0 0
lowerback 1.61656 -5.0866 -1.81453
upperback -1.854 -6.91603 -1.30732
thorax -2.75262 -3.42764 -0.102148
lowerneck -7.60774 -4.57658 0.104593
upperneck 3.31806 -6.3792 4.45197
head 2.53375 -3.05105 1.12029
lclavicle -2.46493e-14 2.54444e-14 0
lhumerus 31.4869 -43.6744 26.2876
lradius 82.8552 -0 0
lwrist 29.2833 0 0
lhand -18.4035 -4.25834 0.117135
lfingers 7.12502 -0 0
lthumb 7.87901 25.5254 0.105102
rclavicle -2.46493e-14 2.54444e-14 0
rhumerus -41.8271 -9.22348 -27.7063
rradius 89.4506 -0 0
rwrist -14.0558 0 0
rhand -31.883 -43.6958 -0.0887051
rfingers 7.12502 -0 0
rthumb -5.13528 -73.5928 -0.0871467
